<svg width="22" height="21" viewBox="0 0 22 21" fill="none" xmlns="http://www.w3.org/2000/svg">
<path d="M19 9C19 13.9706 14.7467 18 9.5 18C4.25329 18 0 13.9706 0 9C0 4.02944 4.25329 0 9.5 0C14.7467 0 19 4.02944 19 9Z" />
<path fill-rule="evenodd" clip-rule="evenodd" d="M9.5 16C13.7454 16 17 12.7655 17 9C17 5.23452 13.7454 2 9.5 2C5.2546 2 2 5.23452 2 9C2 12.7655 5.2546 16 9.5 16ZM9.5 18C14.7467 18 19 13.9706 19 9C19 4.02944 14.7467 0 9.5 0C4.25329 0 0 4.02944 0 9C0 13.9706 4.25329 18 9.5 18Z" fill="#E2E5E9"/>
<path fill-rule="evenodd" clip-rule="evenodd" d="M20 20.9999L14 14.9999L15.4142 13.5857L21.4142 19.5857L20 20.9999Z" fill="#E2E5E9"/>
</svg>
