<svg width="67" height="24" viewBox="0 0 67 24" fill="none" xmlns="http://www.w3.org/2000/svg">
<path d="M33.7154 13.763V13.8293C34.4356 14.0951 35.1242 14.5605 35.4843 14.8595C36.5975 15.7902 37.0896 17.0193 37.0896 18.6143C37.0896 21.2409 35.7138 23.1342 33.4529 23.7328C32.7643 23.9324 32.0441 23.9986 30.7013 23.9986H23.8561V4.78952H29.9165C31.1617 4.78952 32.0125 4.85581 32.7657 5.05468C34.9606 5.65332 36.4023 7.18204 36.4023 9.6077C36.4023 10.9044 35.944 12.0016 35.1908 12.7321C34.863 13.0642 34.4046 13.4633 33.7167 13.7623L33.7154 13.763ZM27.6556 15.7902V20.8418H30.2766C31.0621 20.8418 31.7836 20.7755 32.3073 20.277C32.8316 19.7784 33.0605 19.1466 33.0605 18.316C33.0605 17.6856 32.8963 17.0869 32.5691 16.6547C32.0125 15.9566 31.3239 15.7902 30.1454 15.7902H27.655H27.6556ZM27.622 12.4663H29.7516C30.4065 12.4663 30.7343 12.4663 31.0614 12.3668C31.9465 12.1003 32.5032 11.3042 32.5032 10.207C32.5032 8.91098 31.9135 8.34549 31.0614 8.08033C30.7007 7.98022 30.3412 7.94775 29.6204 7.94775H27.622V12.4669V12.4663ZM42.7892 23.9993V8.01336H37.3191V4.7902H52.5193L51.4383 8.01336H46.5894V23.9993H42.7892ZM53.6985 23.9993V4.7902H66.016L64.935 8.01336H57.4665V12.2681H60.5135C62.9703 12.2681 64.2478 12.8667 65.1329 13.6304C65.8214 14.229 67 15.5575 67 18.1841C67 20.7762 65.7885 22.2048 64.7721 22.9367C63.5929 23.7666 62.3483 24 59.8249 24H53.6992H53.6985V23.9993ZM57.4658 20.7748H60.3156C61.3966 20.7748 62.0515 20.509 62.5099 19.9103C62.7387 19.612 63.0665 19.079 63.0665 18.0826C63.0665 17.0863 62.7387 16.3875 62.0838 15.889C61.6914 15.5907 61.1664 15.425 60.282 15.425H57.4644V20.7748H57.4658Z" fill="#E2E5E9"/>
<path d="M4.6261 0L3.4684 3.19138H19.5059L20.6636 0H4.6261ZM2.89022 4.78571L1.73251 7.97641H17.7701L18.9278 4.78571H2.89022ZM1.1577 9.57142L0 12.7614H16.0375L17.1939 9.57074C17.1946 9.57142 1.1577 9.57142 1.1577 9.57142Z" fill="#009FDF"/>
</svg>
